<svg xmlns="http://www.w3.org/2000/svg" xmlns:xlink="http://www.w3.org/1999/xlink" width="4000" zoomAndPan="magnify" viewBox="0 0 3000 2999.999989" height="4000" preserveAspectRatio="xMidYMid meet" version="1.0"><defs><clipPath id="a0e57749ad"><path d="M 0.75 0.75 L 2603.25 0.75 L 2603.25 2603.25 L 0.75 2603.25 Z M 0.75 0.75 " clip-rule="nonzero"/></clipPath><clipPath id="1298286eea"><path d="M 1302 0.75 C 2020.660156 0.75 2603.25 583.339844 2603.25 1302 C 2603.25 2020.660156 2020.660156 2603.25 1302 2603.25 C 583.339844 2603.25 0.75 2020.660156 0.75 1302 C 0.75 583.339844 583.339844 0.75 1302 0.75 L 1302 521.25 C 870.804688 521.25 521.25 870.804688 521.25 1302 C 521.25 1733.195312 870.804688 2082.75 1302 2082.75 C 1733.195312 2082.75 2082.75 1733.195312 2082.75 1302 C 2082.75 870.804688 1733.195312 521.25 1302 521.25 Z M 1302 0.75 " clip-rule="nonzero"/></clipPath><clipPath id="01e9d0e273"><path d="M 0.75 0.75 L 2603.25 0.75 L 2603.25 2603.25 L 0.75 2603.25 Z M 0.75 0.75 " clip-rule="nonzero"/></clipPath><clipPath id="0c61ac78a6"><path d="M 1302 0.75 C 2020.660156 0.75 2603.25 583.339844 2603.25 1302 C 2603.25 2020.660156 2020.660156 2603.25 1302 2603.25 C 583.339844 2603.25 0.75 2020.660156 0.75 1302 C 0.75 583.339844 583.339844 0.75 1302 0.75 L 1302 521.25 C 870.804688 521.25 521.25 870.804688 521.25 1302 C 521.25 1733.195312 870.804688 2082.75 1302 2082.75 C 1733.195312 2082.75 2082.75 1733.195312 2082.75 1302 C 2082.75 870.804688 1733.195312 521.25 1302 521.25 Z M 1302 0.75 " clip-rule="nonzero"/></clipPath><clipPath id="60f1864f87"><rect x="0" width="2604" y="0" height="2604"/></clipPath><clipPath id="86540bc4dd"><path d="M 283 33 L 2603.28125 33 L 2603.28125 2603.28125 L 283 2603.28125 Z M 283 33 " clip-rule="nonzero"/></clipPath><clipPath id="a4a393accd"><path d="M 1627.3125 42.070312 C 2163.023438 180.390625 2552.6875 642.339844 2598.734375 1193.699219 C 2644.785156 1745.058594 2337.144531 2265.246094 1831.800781 2490.511719 C 1326.457031 2715.777344 733.925781 2596.859375 354.636719 2194.050781 C 256.101562 2089.40625 261.054688 1924.699219 365.699219 1826.167969 C 470.339844 1727.632812 635.046875 1732.585938 733.582031 1837.230469 C 961.15625 2078.914062 1316.675781 2150.265625 1619.882812 2015.105469 C 1923.085938 1879.949219 2107.671875 1567.835938 2080.039062 1237.019531 C 2052.410156 906.203125 1818.613281 629.035156 1497.1875 546.042969 C 1407.160156 522.796875 1336.375 453.289062 1311.492188 363.703125 C 1286.609375 274.117188 1311.410156 178.058594 1376.554688 111.71875 C 1441.699219 45.375 1537.285156 18.824219 1627.3125 42.070312 Z M 1627.3125 42.070312 " clip-rule="nonzero"/></clipPath><clipPath id="324b931115"><path d="M 0 0 L 2320.28125 0 L 2320.28125 2570.28125 L 0 2570.28125 Z M 0 0 " clip-rule="nonzero"/></clipPath><clipPath id="f11f7e2b9d"><path d="M 1344.3125 9.070312 C 1880.023438 147.390625 2269.6875 609.339844 2315.734375 1160.699219 C 2361.785156 1712.058594 2054.144531 2232.246094 1548.800781 2457.511719 C 1043.457031 2682.777344 450.925781 2563.859375 71.636719 2161.050781 C -26.898438 2056.40625 -21.945312 1891.699219 82.699219 1793.167969 C 187.339844 1694.632812 352.046875 1699.585938 450.582031 1804.230469 C 678.15625 2045.914062 1033.675781 2117.265625 1336.882812 1982.105469 C 1640.085938 1846.949219 1824.671875 1534.835938 1797.039062 1204.019531 C 1769.410156 873.203125 1535.613281 596.035156 1214.1875 513.042969 C 1124.160156 489.796875 1053.375 420.289062 1028.492188 330.703125 C 1003.609375 241.117188 1028.410156 145.058594 1093.554688 78.71875 C 1158.699219 12.375 1254.285156 -14.175781 1344.3125 9.070312 Z M 1344.3125 9.070312 " clip-rule="nonzero"/></clipPath><clipPath id="79fa948aad"><rect x="0" width="2321" y="0" height="2571"/></clipPath><clipPath id="ae942ed2bc"><rect x="0" width="2604" y="0" height="2604"/></clipPath></defs><rect x="-300" width="3600" fill="#ffffff" y="-299.999999" height="3599.999987" fill-opacity="1"/><rect x="-300" width="3600" fill="#ffffff" y="-299.999999" height="3599.999987" fill-opacity="1"/><g transform="matrix(1, 0, 0, 1, 198, 198)"><g clip-path="url(#ae942ed2bc)"><g clip-path="url(#a0e57749ad)"><g clip-path="url(#1298286eea)"><g transform="matrix(1, 0, 0, 1, 0, 0.000000000000341061)"><g clip-path="url(#60f1864f87)"><g clip-path="url(#01e9d0e273)"><g clip-path="url(#0c61ac78a6)"><path fill="#494f56" d="M 0.75 0.75 L 2603.25 0.75 L 2603.25 2603.25 L 0.75 2603.25 Z M 0.75 0.75 " fill-opacity="1" fill-rule="nonzero"/></g></g></g></g></g></g><g clip-path="url(#86540bc4dd)"><g clip-path="url(#a4a393accd)"><g transform="matrix(1, 0, 0, 1, 283, 33)"><g clip-path="url(#79fa948aad)"><g clip-path="url(#324b931115)"><g clip-path="url(#f11f7e2b9d)"><path fill="#38b6ff" d="M -282.25 -32.25 L 2320.25 -32.25 L 2320.25 2570.25 L -282.25 2570.25 Z M -282.25 -32.25 " fill-opacity="1" fill-rule="nonzero"/></g></g></g></g></g></g></g></g></svg>